<?xml version="1.0" standalone="no"?>
<!DOCTYPE svg PUBLIC "-//W3C//DTD SVG 20010904//EN"
 "http://www.w3.org/TR/2001/REC-SVG-20010904/DTD/svg10.dtd">
<svg version="1.0" xmlns="http://www.w3.org/2000/svg"
 width="300.000000pt" height="432.000000pt" viewBox="0 0 300.000000 432.000000"
 preserveAspectRatio="xMidYMid meet">
<metadata>
Created by potrace 1.10, written by Peter Selinger 2001-2011
</metadata>
<g transform="translate(0.000000,432.000000) scale(0.100000,-0.100000)"
fill="#000000" stroke="none">
<path d="M1628 3461 c-34 -27 -35 -42 -5 -77 20 -22 37 -29 113 -41 90 -14
242 -18 276 -7 11 3 18 15 18 32 l0 27 -127 -3 c-129 -4 -233 4 -233 16 0 4
109 8 242 10 143 1 246 6 252 12 7 7 5 16 -6 26 -13 13 -55 17 -259 21 -240 5
-244 5 -271 -16z"/>
<path d="M2044 3372 c4 -10 0 -27 -8 -38 -14 -18 -26 -19 -181 -16 -146 2
-172 0 -210 -17 -68 -30 -72 -76 -9 -130 33 -30 84 -42 84 -21 0 6 65 10 176
10 157 0 181 2 225 21 46 20 49 23 49 60 0 28 -6 42 -22 54 -22 15 -23 14 -26
-9 -2 -14 -15 -35 -29 -46 -24 -18 -40 -20 -210 -20 l-183 0 6 -25 c7 -29 -6
-32 -29 -7 -18 20 -22 48 -9 56 4 2 88 7 186 10 194 7 231 17 242 62 9 35 -11
74 -36 74 -16 0 -20 -5 -16 -18z"/>
<path d="M1227 3049 l-226 -162 29 -37 c25 -32 30 -47 30 -94 l0 -57 -62 3
c-38 2 -63 8 -66 16 -2 7 5 12 17 12 30 0 34 17 9 35 -18 12 -20 18 -10 24 10
6 9 16 -8 44 -19 32 -20 37 -6 37 20 0 21 24 0 41 -14 11 -14 13 0 21 21 12
20 24 -5 65 l-21 34 -33 -38 c-24 -27 -30 -41 -23 -50 6 -7 14 -11 18 -8 5 3
12 0 15 -6 4 -6 -2 -13 -14 -16 -27 -7 -27 -30 -1 -38 24 -8 25 -17 5 -55 -14
-27 -14 -30 0 -30 8 0 15 -7 15 -15 0 -8 -4 -15 -10 -15 -5 0 -10 -7 -10 -15
0 -8 9 -15 20 -15 38 0 20 -18 -27 -28 -52 -12 -77 2 -46 25 15 12 15 15 -7
38 -19 20 -20 25 -7 25 27 0 29 19 5 59 l-24 40 -29 -36 c-26 -33 -27 -37 -12
-48 22 -16 21 -21 -4 -56 l-20 -29 25 0 c33 0 33 -10 1 -40 -32 -30 -31 -38 3
-42 l27 -4 -27 -14 c-20 -9 -28 -21 -28 -39 l0 -26 740 3 c705 2 740 3 740 20
0 10 -13 28 -30 40 -16 13 -30 28 -30 34 0 9 3 9 12 0 15 -15 38 -16 38 0 0 6
-11 26 -26 45 -24 31 -21 46 4 21 25 -25 24 3 -2 40 -31 46 -33 56 -6 49 27
-7 25 0 -15 57 -29 41 -36 46 -40 30 -4 -10 -13 -34 -21 -52 -18 -42 -18 -45
6 -37 27 8 27 -18 0 -52 -22 -28 -17 -51 6 -32 11 9 14 8 14 -4 0 -8 -6 -20
-14 -26 -10 -9 -20 -5 -45 18 -34 32 -42 75 -15 85 15 6 15 8 0 31 -20 30 -20
36 -1 29 21 -8 18 16 -5 46 -25 33 -25 43 2 35 l21 -7 -21 35 c-12 19 -22 42
-22 51 0 27 -18 18 -25 -13 -3 -16 -13 -35 -21 -42 -21 -17 -17 -29 9 -30 l22
0 -22 -15 c-23 -16 -21 -44 3 -44 20 0 17 -14 -6 -35 -11 -10 -20 -24 -20 -30
0 -7 9 -15 20 -18 23 -6 28 -48 8 -65 -7 -6 -38 -12 -68 -14 l-55 -3 -3 62
c-2 50 0 62 11 57 9 -3 17 8 25 33 11 36 11 39 -18 63 -30 25 -30 27 -30 118
l0 92 -55 0 -54 0 -3 -55 -3 -55 -130 95 c-71 52 -133 94 -136 95 -3 0 -108
-73 -232 -161z m363 21 c52 -37 105 -69 116 -72 25 -6 50 18 60 57 3 14 12 25
20 25 10 0 14 -16 15 -57 1 -32 1 -62 0 -66 -1 -5 7 -20 17 -35 31 -45 32 -48
16 -71 -15 -21 -16 -21 -84 49 -37 38 -74 70 -80 70 -12 0 -25 10 -124 91 -32
27 -54 38 -65 33 -20 -8 -32 -8 -53 1 -13 5 -28 -3 -54 -29 -20 -20 -40 -36
-45 -36 -4 0 -23 -13 -41 -29 -18 -15 -47 -36 -65 -45 -18 -9 -40 -28 -50 -42
-35 -52 -76 -84 -90 -72 -32 26 -11 48 178 182 170 121 193 135 212 124 12 -6
65 -41 117 -78z m-157 -97 l4 -83 -29 0 -28 0 0 71 c0 61 3 73 23 89 26 22 24
26 30 -77z m74 75 c20 -18 23 -31 23 -90 0 -66 -1 -68 -25 -68 -24 0 -25 2
-25 74 0 41 -3 81 -6 90 -9 22 6 20 33 -6z m-167 -108 c0 -53 -2 -60 -20 -60
-17 0 -20 7 -20 46 0 33 5 51 18 60 9 7 18 14 20 14 1 0 2 -27 2 -60z m257 38
c16 -15 23 -33 23 -58 0 -35 -1 -36 -30 -32 -29 4 -30 6 -30 58 0 30 3 54 7
54 4 0 17 -10 30 -22z m-337 -68 c0 -29 -2 -30 -42 -30 l-42 0 40 30 c21 16
40 30 42 30 1 0 2 -13 2 -30z m470 -26 c0 -2 -18 -4 -40 -4 -38 0 -40 2 -40
30 l0 30 40 -26 c22 -15 40 -28 40 -30z m-120 -49 c0 -13 -21 -15 -127 -15
-71 0 -138 -3 -150 -6 -19 -5 -23 -2 -23 15 0 20 4 21 150 21 127 0 150 -2
150 -15z m160 -5 c0 -19 -5 -21 -67 -18 -55 2 -68 6 -71 21 -3 15 5 17 67 17
65 0 71 -2 71 -20z m-496 -15 c4 -13 -7 -15 -69 -15 -60 0 -75 3 -75 15 0 12
14 15 69 15 52 0 70 -4 75 -15z m336 -45 c0 -19 -7 -20 -150 -20 -125 0 -150
2 -150 15 0 11 21 15 108 18 59 1 126 4 150 5 36 2 42 -1 42 -18z m160 -10 c0
-18 -7 -20 -65 -20 -58 0 -65 2 -65 20 0 18 7 20 65 20 58 0 65 -2 65 -20z
m-490 -4 c0 -9 -18 -15 -52 -20 -86 -10 -98 -8 -98 14 0 18 7 20 75 20 57 0
75 -3 75 -14z m549 -92 c-10 -13 -15 -10 -26 17 -20 49 -7 71 18 30 16 -26 17
-36 8 -47z m-221 29 c-3 -16 -18 -18 -153 -18 -135 0 -150 2 -153 18 -3 16 9
17 153 17 144 0 156 -1 153 -17z m-318 -23 c0 -17 -7 -20 -42 -20 -24 0 -60
-3 -80 -6 -36 -6 -38 -5 -38 20 0 26 0 26 80 26 73 0 80 -2 80 -20z m483 -6
c4 -25 3 -26 -32 -20 -20 3 -51 6 -68 6 -26 0 -33 4 -33 20 0 18 7 20 64 20
61 0 64 -1 69 -26z m-713 -26 c0 -23 -2 -23 -125 -23 -73 0 -124 4 -122 9 7
20 75 35 160 35 84 1 87 0 87 -21z m290 -8 c0 -15 -7 -20 -25 -20 -18 0 -25 5
-25 20 0 15 7 20 25 20 18 0 25 -5 25 -20z m100 0 c0 -16 -7 -20 -30 -20 -23
0 -30 4 -30 20 0 16 7 20 30 20 23 0 30 -4 30 -20z m80 0 c0 -13 -7 -20 -20
-20 -13 0 -20 7 -20 20 0 13 7 20 20 20 13 0 20 -7 20 -20z m80 0 c0 -13 -7
-20 -20 -20 -13 0 -20 7 -20 20 0 13 7 20 20 20 13 0 20 -7 20 -20z m478 8 c7
-7 12 -16 12 -20 0 -4 -56 -8 -125 -8 -118 0 -125 1 -125 20 0 19 7 20 113 20
75 0 117 -4 125 -12z m-268 -24 c0 -8 -9 -14 -20 -14 -22 0 -26 10 -8 28 13
13 28 7 28 -14z"/>
<path d="M802 2534 c-5 -11 -9 -48 -8 -84 1 -51 4 -65 16 -65 10 0 16 12 18
33 3 29 6 32 36 32 37 0 56 15 56 45 0 34 -16 47 -63 52 -37 4 -47 2 -55 -13z
m82 -25 c13 -11 -12 -39 -35 -39 -15 0 -19 7 -19 31 0 27 3 30 23 24 12 -4 26
-11 31 -16z"/>
<path d="M950 2465 c0 -69 3 -85 15 -85 12 0 15 13 15 58 l1 57 35 -57 c33
-54 58 -72 66 -48 2 5 2 44 0 85 -3 53 -7 75 -15 72 -7 -2 -11 -24 -11 -56 1
-28 -1 -51 -5 -51 -3 0 -21 25 -39 55 -49 80 -62 74 -62 -30z"/>
<path d="M1111 2528 c1 -46 34 -143 48 -143 15 0 39 55 40 93 2 39 16 24 29
-30 22 -95 43 -90 68 17 10 41 14 78 11 82 -13 12 -28 -14 -34 -56 -8 -55 -20
-60 -28 -12 -3 22 -13 47 -20 58 -18 24 -33 9 -49 -53 -14 -50 -17 -48 -32 20
-10 44 -34 62 -33 24z"/>
<path d="M1406 2537 c-32 -23 -17 -60 32 -77 28 -10 42 -20 42 -32 0 -23 -55
-25 -64 -3 -6 17 -36 21 -36 5 0 -21 41 -50 70 -50 31 0 70 30 70 53 0 19 -29
42 -64 54 -35 11 -45 30 -21 39 10 4 26 -2 40 -16 23 -21 25 -22 31 -5 14 37
-61 61 -100 32z"/>
<path d="M1581 2528 c-5 -13 -18 -47 -30 -76 -12 -29 -21 -57 -21 -62 0 -20
27 -9 38 15 8 18 19 25 40 25 21 0 32 -7 40 -25 6 -14 17 -25 23 -25 16 0 6
43 -25 113 -27 61 -50 73 -65 35z m44 -55 c5 -20 3 -23 -19 -23 -24 0 -24 2
-14 31 11 32 21 29 33 -8z"/>
<path d="M1700 2481 c0 -61 3 -72 22 -85 28 -20 68 -20 94 -2 16 12 19 27 19
83 0 54 -3 68 -15 68 -11 0 -16 -16 -20 -65 -5 -59 -7 -65 -29 -68 -32 -5 -41
12 -41 81 0 44 -3 57 -15 57 -12 0 -15 -14 -15 -69z"/>
<path d="M1874 2537 c-3 -8 -4 -45 -2 -83 2 -52 7 -69 18 -69 11 0 13 12 11
53 -1 28 0 52 3 52 3 0 21 -25 41 -55 51 -81 65 -74 65 30 0 68 -3 85 -15 85
-10 0 -15 -15 -17 -57 l-3 -58 -35 58 c-34 56 -55 70 -66 44z"/>
<path d="M2081 2528 c-5 -13 -18 -47 -30 -76 -25 -63 -26 -72 -6 -72 8 0 17
11 21 25 5 20 12 25 40 25 28 0 35 -5 40 -25 3 -14 13 -25 21 -25 20 0 13 37
-21 113 -27 61 -50 73 -65 35z m44 -55 c5 -20 3 -23 -19 -23 -24 0 -24 2 -14
31 11 32 21 29 33 -8z"/>
</g>
</svg>
