<svg xmlns="http://www.w3.org/2000/svg" viewBox="0 0 600 200" fill="currentColor">
  <!-- Simplified sauna building -->
  <polygon points="150,40 200,20 250,40 250,100 150,100" fill="currentColor"/>
  
  <!-- Simplified roof -->
  <polygon points="155,40 200,25 245,40 245,55 155,55" fill="white"/>
  <rect x="165" y="35" width="6" height="15" fill="white"/>
  <rect x="175" y="35" width="6" height="15" fill="white"/>
  <rect x="185" y="35" width="6" height="15" fill="white"/>
  <rect x="195" y="35" width="6" height="15" fill="white"/>
  <rect x="205" y="35" width="6" height="15" fill="white"/>
  <rect x="215" y="35" width="6" height="15" fill="white"/>
  <rect x="225" y="35" width="6" height="15" fill="white"/>
  <rect x="235" y="35" width="6" height="15" fill="white"/>
  
  <!-- Building wall -->
  <rect x="155" y="55" width="90" height="45" fill="currentColor"/>
  <line x1="155" y1="65" x2="245" y2="65" stroke="white" stroke-width="2"/>
  <line x1="155" y1="75" x2="245" y2="75" stroke="white" stroke-width="2"/>
  <line x1="155" y1="85" x2="245" y2="85" stroke="white" stroke-width="2"/>
  
  <!-- Door -->
  <rect x="192" y="82" width="16" height="18" fill="white"/>
  
  <!-- Windows -->
  <rect x="165" y="70" width="12" height="10" fill="white"/>
  <rect x="223" y="70" width="12" height="10" fill="white"/>
  
  <!-- Chimney with steam -->
  <rect x="220" y="15" width="12" height="25" fill="currentColor"/>
  <path d="M 225 12 Q 228 8 232 12 Q 236 16 240 12" stroke="currentColor" stroke-width="2" fill="none"/>
  <path d="M 227 8 Q 230 4 234 8 Q 238 12 242 8" stroke="currentColor" stroke-width="2" fill="none"/>
  
  <!-- Trees (simplified) -->
  <polygon points="120,70 130,50 140,70" fill="currentColor"/>
  <polygon points="125,75 130,65 135,75" fill="currentColor"/>
  
  <polygon points="260,70 270,50 280,70" fill="currentColor"/>
  <polygon points="265,75 270,65 275,75" fill="currentColor"/>
  
  <!-- Ground -->
  <rect x="110" y="100" width="180" height="6" fill="currentColor"/>
  
  <!-- Large, bold text -->
  <text x="450" y="65" font-family="Arial, sans-serif" font-size="42" font-weight="bold" text-anchor="middle" fill="currentColor">PNW</text>
  <text x="450" y="105" font-family="Arial, sans-serif" font-size="42" font-weight="bold" text-anchor="middle" fill="currentColor">SAUNA</text>
</svg> 