<svg xmlns="http://www.w3.org/2000/svg" viewBox="0 0 400 300" fill="currentColor">
  <!-- Trees (left side) -->
  <polygon points="30,120 45,80 60,120" fill="currentColor"/>
  <polygon points="40,130 50,110 60,130" fill="currentColor"/>
  <polygon points="20,140 35,100 50,140" fill="currentColor"/>
  
  <!-- Trees (right side) -->
  <polygon points="340,120 355,80 370,120" fill="currentColor"/>
  <polygon points="350,130 360,110 370,130" fill="currentColor"/>
  <polygon points="350,140 365,100 380,140" fill="currentColor"/>
  
  <!-- Sauna building -->
  <polygon points="120,60 200,30 280,60 280,140 120,140" fill="currentColor"/>
  
  <!-- Roof details -->
  <polygon points="130,60 190,40 250,60 250,80 130,80" fill="white"/>
  <rect x="140" y="50" width="8" height="20" fill="white"/>
  <rect x="155" y="50" width="8" height="20" fill="white"/>
  <rect x="170" y="50" width="8" height="20" fill="white"/>
  <rect x="185" y="50" width="8" height="20" fill="white"/>
  <rect x="200" y="50" width="8" height="20" fill="white"/>
  <rect x="215" y="50" width="8" height="20" fill="white"/>
  <rect x="230" y="50" width="8" height="20" fill="white"/>
  
  <!-- Building walls with horizontal lines -->
  <rect x="130" y="80" width="140" height="60" fill="currentColor"/>
  <line x1="130" y1="90" x2="270" y2="90" stroke="white" stroke-width="2"/>
  <line x1="130" y1="100" x2="270" y2="100" stroke="white" stroke-width="2"/>
  <line x1="130" y1="110" x2="270" y2="110" stroke="white" stroke-width="2"/>
  <line x1="130" y1="120" x2="270" y2="120" stroke="white" stroke-width="2"/>
  <line x1="130" y1="130" x2="270" y2="130" stroke="white" stroke-width="2"/>
  
  <!-- Door -->
  <rect x="190" y="115" width="20" height="25" fill="white"/>
  
  <!-- Windows -->
  <rect x="145" y="95" width="15" height="15" fill="white"/>
  <rect x="240" y="95" width="15" height="15" fill="white"/>
  
  <!-- Chimney -->
  <rect x="240" y="25" width="15" height="35" fill="currentColor"/>
  
  <!-- Smoke/Steam (curvy lines) -->
  <path d="M 250 20 Q 255 15 260 20 Q 265 25 270 20 Q 275 15 280 20" stroke="currentColor" stroke-width="3" fill="none"/>
  <path d="M 252 15 Q 257 10 262 15 Q 267 20 272 15 Q 277 10 282 15" stroke="currentColor" stroke-width="3" fill="none"/>
  <path d="M 254 10 Q 259 5 264 10 Q 269 15 274 10 Q 279 5 284 10" stroke="currentColor" stroke-width="3" fill="none"/>
  
  <!-- Ground line -->
  <rect x="80" y="140" width="240" height="8" fill="currentColor"/>
  
  <!-- Text -->
  <text x="200" y="180" font-family="Arial, sans-serif" font-size="36" font-weight="bold" text-anchor="middle" fill="currentColor">PNW SAUNA</text>
</svg> 